<svg xmlns="http://www.w3.org/2000/svg" xmlns:xlink="http://www.w3.org/1999/xlink" width="500" zoomAndPan="magnify" viewBox="0 0 375 374.999991" height="500" preserveAspectRatio="xMidYMid meet" version="1.0"><defs><clipPath id="b2e7e27785"><path d="M 129 97 L 263.796875 97 L 263.796875 285.949219 L 129 285.949219 Z M 129 97 " clip-rule="nonzero"/></clipPath></defs><g clip-path="url(#b2e7e27785)"><path fill="#2869bd" d="M 160.308594 228.09375 L 160.308594 249.878906 C 161.085938 256.011719 161.945312 259.53125 162.957031 260.542969 C 163.9375 261.609375 166.597656 262.167969 170.886719 262.167969 L 218.671875 262.167969 C 222.261719 262.167969 228.070312 262.597656 233.175781 262.332031 C 244.832031 261.71875 255.933594 248.183594 261.046875 238.617188 L 263.796875 238.617188 C 263.144531 242.980469 261.132812 249.871094 257.640625 259.289062 C 256.515625 262.320312 254.167969 267.996094 252.019531 273.359375 L 161.378906 273.359375 L 161.367188 273.347656 C 161.261719 273.242188 161.15625 273.136719 161.050781 273.027344 L 161.046875 273.027344 C 160.945312 272.921875 160.84375 272.816406 160.742188 272.710938 L 160.683594 272.652344 C 160.59375 272.558594 160.507812 272.464844 160.417969 272.371094 L 160.363281 272.3125 C 160.277344 272.21875 160.191406 272.125 160.105469 272.03125 L 160.035156 271.949219 L 159.789062 271.671875 L 159.742188 271.621094 C 159.660156 271.527344 159.582031 271.4375 159.503906 271.34375 L 159.363281 271.179688 L 159.199219 270.980469 L 159.027344 270.773438 L 158.914062 270.632812 L 158.734375 270.402344 L 158.617188 270.257812 L 158.4375 270.019531 L 158.34375 269.894531 L 158.171875 269.664062 L 158.058594 269.507812 L 157.886719 269.269531 L 157.796875 269.136719 C 157.734375 269.050781 157.671875 268.960938 157.613281 268.871094 L 157.539062 268.761719 L 157.34375 268.464844 L 157.28125 268.371094 C 157.21875 268.273438 157.152344 268.175781 157.089844 268.074219 L 157.023438 267.96875 C 156.960938 267.871094 156.902344 267.773438 156.84375 267.671875 L 156.777344 267.566406 C 156.71875 267.464844 156.660156 267.367188 156.601562 267.265625 L 156.546875 267.171875 C 156.488281 267.066406 156.425781 266.964844 156.371094 266.859375 L 156.3125 266.757812 C 156.253906 266.648438 156.191406 266.539062 156.132812 266.425781 L 156.089844 266.347656 C 156.035156 266.238281 155.976562 266.125 155.917969 266.015625 L 155.871094 265.921875 C 155.816406 265.8125 155.761719 265.699219 155.707031 265.589844 L 155.660156 265.496094 C 155.609375 265.386719 155.558594 265.273438 155.507812 265.164062 L 155.457031 265.0625 C 155.402344 264.9375 155.347656 264.8125 155.292969 264.6875 L 155.273438 264.648438 C 155.21875 264.519531 155.164062 264.390625 155.109375 264.261719 L 155.082031 264.195312 C 155.03125 264.070312 154.980469 263.945312 154.929688 263.816406 L 154.902344 263.746094 C 154.851562 263.617188 154.804688 263.492188 154.757812 263.363281 L 154.730469 263.289062 C 154.679688 263.15625 154.632812 263.019531 154.585938 262.882812 L 154.574219 262.847656 C 154.414062 262.390625 154.269531 261.929688 154.136719 261.457031 L 154.136719 261.449219 L 154.132812 261.433594 C 154.089844 261.28125 154.046875 261.125 154.007812 260.972656 L 154.007812 260.96875 L 154.003906 260.960938 C 153.964844 260.800781 153.921875 260.640625 153.886719 260.480469 C 151.628906 250.960938 154.9375 240.332031 158.710938 231.621094 L 158.757812 231.511719 L 158.785156 231.457031 L 158.929688 231.125 L 158.953125 231.066406 L 158.976562 231.011719 L 159.148438 230.625 L 159.171875 230.570312 L 159.199219 230.515625 L 159.246094 230.40625 L 159.394531 230.074219 L 159.421875 230.019531 L 159.445312 229.964844 L 159.445312 229.960938 L 159.46875 229.910156 L 159.496094 229.855469 L 159.519531 229.796875 L 159.546875 229.742188 L 159.570312 229.6875 L 159.621094 229.578125 L 159.644531 229.523438 L 159.671875 229.46875 L 159.695312 229.414062 L 159.695312 229.410156 L 159.71875 229.359375 L 159.746094 229.300781 L 159.769531 229.246094 L 159.796875 229.191406 L 159.820312 229.136719 L 159.847656 229.082031 L 159.871094 229.027344 L 159.898438 228.972656 L 159.921875 228.917969 L 159.972656 228.808594 L 160 228.753906 L 160.023438 228.699219 L 160.050781 228.644531 L 160.074219 228.585938 L 160.101562 228.53125 L 160.125 228.476562 L 160.152344 228.421875 L 160.175781 228.367188 L 160.203125 228.3125 L 160.207031 228.308594 L 160.230469 228.257812 L 160.253906 228.203125 L 160.28125 228.148438 L 160.304688 228.09375 Z M 154.648438 101.054688 C 190.117188 88.703125 208.980469 113 199.375 147.359375 C 186.5625 193.179688 111.546875 255.832031 172.28125 285.945312 C 172.28125 285.945312 134.898438 278.492188 133.59375 249.855469 C 132.207031 219.488281 170.804688 184.808594 182.171875 147.90625 C 189.183594 125.148438 188.167969 101.839844 154.648438 101.054688 Z M 170.101562 165.394531 L 170.101562 108.300781 C 170.195312 108.34375 170.289062 108.386719 170.382812 108.429688 L 170.515625 108.492188 L 170.785156 108.621094 L 170.875 108.667969 L 171.140625 108.800781 L 171.265625 108.867188 C 171.363281 108.914062 171.457031 108.964844 171.554688 109.019531 L 171.628906 109.058594 C 171.722656 109.109375 171.816406 109.164062 171.910156 109.214844 L 171.980469 109.253906 C 172.078125 109.308594 172.171875 109.363281 172.269531 109.421875 L 172.375 109.484375 L 172.632812 109.640625 L 172.726562 109.699219 C 172.816406 109.757812 172.910156 109.8125 173 109.875 L 173.054688 109.910156 C 173.160156 109.976562 173.265625 110.046875 173.367188 110.117188 L 173.410156 110.144531 C 173.503906 110.210938 173.601562 110.28125 173.695312 110.347656 L 173.75 110.386719 C 173.84375 110.453125 173.9375 110.519531 174.027344 110.589844 L 174.09375 110.636719 C 174.183594 110.707031 174.277344 110.777344 174.367188 110.851562 L 174.433594 110.902344 C 174.523438 110.972656 174.613281 111.042969 174.699219 111.117188 L 174.742188 111.152344 C 174.839844 111.234375 174.9375 111.316406 175.035156 111.402344 L 175.046875 111.40625 L 175.050781 111.414062 C 175.148438 111.496094 175.242188 111.582031 175.335938 111.664062 L 175.386719 111.710938 C 175.472656 111.792969 175.558594 111.871094 175.644531 111.953125 L 175.679688 111.984375 C 175.773438 112.078125 175.871094 112.171875 175.964844 112.265625 L 175.980469 112.28125 C 176.070312 112.371094 176.15625 112.460938 176.242188 112.554688 L 176.285156 112.597656 C 176.371094 112.6875 176.453125 112.777344 176.539062 112.871094 L 176.550781 112.886719 L 176.554688 112.894531 L 176.558594 112.898438 C 176.648438 112.992188 176.730469 113.089844 176.816406 113.1875 L 176.851562 113.230469 C 176.933594 113.328125 177.011719 113.421875 177.089844 113.519531 L 177.117188 113.550781 C 177.199219 113.65625 177.28125 113.757812 177.359375 113.863281 L 177.371094 113.878906 L 177.382812 113.890625 C 177.457031 113.992188 177.535156 114.09375 177.613281 114.199219 L 177.648438 114.25 C 177.726562 114.359375 177.800781 114.464844 177.875 114.574219 L 177.882812 114.585938 C 177.960938 114.699219 178.039062 114.816406 178.117188 114.933594 L 178.136719 114.96875 C 178.207031 115.078125 178.277344 115.1875 178.34375 115.300781 L 178.367188 115.339844 C 178.441406 115.460938 178.511719 115.582031 178.582031 115.707031 C 183.5625 124.4375 180.839844 137.613281 178.058594 146.648438 L 177.894531 147.175781 L 177.878906 147.230469 L 177.871094 147.246094 L 177.863281 147.269531 L 177.695312 147.804688 L 177.691406 147.808594 L 177.679688 147.847656 C 177.625 148.023438 177.566406 148.199219 177.507812 148.375 L 177.5 148.390625 L 177.484375 148.445312 L 177.3125 148.953125 L 177.304688 148.976562 L 177.136719 149.464844 L 177.089844 149.601562 L 176.917969 150.089844 L 176.894531 150.15625 L 176.707031 150.671875 L 176.683594 150.746094 L 176.507812 151.222656 L 176.457031 151.359375 L 176.28125 151.828125 L 176.257812 151.894531 L 176.054688 152.421875 L 176.050781 152.433594 C 175.980469 152.613281 175.910156 152.796875 175.839844 152.976562 L 175.8125 153.042969 L 175.632812 153.5 L 175.601562 153.574219 L 175.574219 153.648438 L 175.375 154.140625 L 175.363281 154.164062 L 175.363281 154.171875 L 175.359375 154.183594 L 175.351562 154.199219 C 175.292969 154.34375 175.234375 154.488281 175.175781 154.632812 L 175.167969 154.648438 L 175.167969 154.65625 L 175.15625 154.679688 L 175.140625 154.71875 L 175.117188 154.773438 L 174.925781 155.238281 L 174.910156 155.269531 L 174.902344 155.289062 L 174.867188 155.375 L 174.671875 155.835938 L 174.664062 155.855469 L 174.652344 155.878906 L 174.433594 156.390625 L 174.417969 156.425781 L 174.410156 156.441406 L 174.195312 156.933594 L 174.171875 156.992188 L 173.9375 157.519531 L 173.921875 157.558594 L 173.894531 157.609375 L 173.691406 158.066406 L 173.667969 158.121094 L 173.632812 158.195312 L 173.441406 158.617188 L 173.410156 158.6875 L 173.367188 158.777344 L 173.171875 159.203125 L 173.148438 159.25 L 173.101562 159.355469 L 172.964844 159.648438 L 172.886719 159.8125 L 172.828125 159.9375 L 172.640625 160.335938 L 172.601562 160.417969 L 172.359375 160.921875 L 172.347656 160.945312 L 172.101562 161.453125 L 172.082031 161.492188 L 171.996094 161.671875 C 171.851562 161.960938 171.710938 162.246094 171.566406 162.535156 L 171.53125 162.609375 L 171.503906 162.660156 L 171.28125 163.109375 L 171.234375 163.203125 L 170.988281 163.679688 L 170.945312 163.765625 L 170.695312 164.253906 L 170.6875 164.273438 L 170.402344 164.824219 L 170.113281 165.378906 L 170.105469 165.394531 Z M 148.976562 184.746094 C 148.976562 184.746094 127.679688 221.121094 129.792969 241.511719 L 129.792969 241.515625 C 131.167969 232.621094 135.019531 223.964844 139.203125 216.195312 C 142.214844 210.601562 145.546875 205.160156 148.976562 199.769531 L 149.109375 199.554688 L 149.152344 199.492188 L 149.195312 199.421875 L 149.328125 199.214844 L 149.367188 199.15625 L 149.503906 198.9375 L 149.535156 198.890625 L 149.621094 198.757812 L 149.679688 198.664062 L 149.859375 198.386719 L 149.875 198.359375 L 150.035156 198.109375 L 150.132812 197.957031 L 150.210938 197.832031 L 150.21875 197.824219 L 150.386719 197.558594 L 150.554688 197.300781 L 150.558594 197.292969 L 150.566406 197.28125 L 150.644531 197.160156 L 150.742188 197.003906 L 150.902344 196.761719 L 150.921875 196.730469 L 151.097656 196.453125 L 151.15625 196.363281 L 151.242188 196.230469 L 151.277344 196.179688 L 151.414062 195.964844 L 151.453125 195.902344 L 151.585938 195.699219 L 151.632812 195.625 L 151.671875 195.566406 L 151.808594 195.351562 L 151.925781 195.167969 L 151.988281 195.074219 L 152.167969 194.800781 L 152.183594 194.773438 L 152.269531 194.640625 L 152.34375 194.523438 L 152.441406 194.375 L 152.523438 194.25 L 152.613281 194.109375 L 152.699219 193.976562 L 152.703125 193.972656 L 152.878906 193.699219 L 152.957031 193.578125 L 153.214844 193.179688 L 153.238281 193.148438 L 153.300781 193.050781 L 153.414062 192.871094 L 153.472656 192.785156 L 153.59375 192.597656 L 153.644531 192.519531 L 153.988281 191.988281 L 154.128906 191.769531 L 154.246094 191.589844 L 154.304688 191.496094 L 154.332031 191.460938 L 154.484375 191.222656 L 154.503906 191.195312 L 154.664062 190.945312 L 154.675781 190.929688 L 154.761719 190.796875 L 154.839844 190.671875 L 155.015625 190.398438 L 155.019531 190.394531 L 155.199219 190.121094 L 155.554688 189.570312 L 155.703125 189.339844 L 155.730469 189.296875 L 155.910156 189.019531 L 156.046875 188.8125 L 156.089844 188.746094 L 156.265625 188.472656 L 156.386719 188.28125 L 156.441406 188.195312 L 156.621094 187.921875 L 156.730469 187.753906 L 156.796875 187.644531 L 156.976562 187.371094 L 157.070312 187.222656 L 157.152344 187.09375 L 157.328125 186.820312 L 157.410156 186.691406 L 157.507812 186.546875 L 157.683594 186.269531 L 157.859375 185.996094 L 158.035156 185.71875 L 158.089844 185.632812 L 158.210938 185.445312 L 158.386719 185.167969 L 158.429688 185.101562 L 158.5625 184.894531 L 158.738281 184.617188 L 158.769531 184.574219 L 158.914062 184.34375 L 159.089844 184.066406 L 159.105469 184.042969 L 159.265625 183.789062 L 159.4375 183.515625 L 159.441406 183.511719 L 159.613281 183.238281 L 159.777344 182.980469 L 159.789062 182.964844 L 159.960938 182.6875 L 160.113281 182.449219 L 160.136719 182.410156 L 160.308594 182.136719 L 160.308594 108.175781 L 131.484375 108.175781 L 131.484375 109.429688 C 135.777344 110.40625 139.792969 113.191406 143.519531 117.746094 C 147.164062 122.203125 148.976562 131.355469 148.976562 145.246094 Z M 213.734375 252.132812 L 170.101562 252.132812 L 170.101562 210.082031 L 170.183594 209.945312 L 170.222656 209.882812 L 170.34375 209.679688 L 170.464844 209.480469 L 170.503906 209.417969 L 170.585938 209.28125 L 170.707031 209.082031 L 170.820312 208.890625 L 170.828125 208.878906 L 171.070312 208.480469 L 171.140625 208.363281 L 171.191406 208.28125 L 171.433594 207.882812 L 171.460938 207.835938 L 171.554688 207.683594 L 171.675781 207.484375 L 171.78125 207.3125 L 171.800781 207.285156 L 172.042969 206.886719 L 172.105469 206.789062 L 172.164062 206.6875 L 172.289062 206.488281 L 172.410156 206.292969 L 172.425781 206.261719 L 172.53125 206.09375 L 172.652344 205.894531 L 172.75 205.738281 L 172.777344 205.695312 L 172.898438 205.496094 L 173.019531 205.300781 L 173.074219 205.214844 L 173.144531 205.101562 L 173.265625 204.902344 L 173.386719 204.707031 L 173.394531 204.695312 L 173.71875 204.171875 L 173.757812 204.113281 L 173.878906 203.914062 L 174 203.71875 L 174.042969 203.652344 L 174.125 203.523438 L 174.246094 203.324219 L 174.367188 203.132812 L 174.371094 203.128906 L 174.492188 202.929688 L 174.613281 202.734375 L 174.691406 202.613281 L 174.738281 202.539062 L 174.859375 202.339844 L 174.984375 202.144531 L 175.015625 202.09375 L 175.105469 201.949219 L 175.226562 201.75 L 175.335938 201.578125 L 175.351562 201.554688 L 175.472656 201.359375 L 175.597656 201.164062 L 175.660156 201.058594 L 175.71875 200.96875 L 175.839844 200.773438 L 175.964844 200.578125 L 175.984375 200.542969 L 176.085938 200.382812 L 176.210938 200.183594 L 176.308594 200.027344 L 176.332031 199.988281 L 176.453125 199.792969 L 176.578125 199.601562 L 176.632812 199.511719 L 176.699219 199.40625 L 176.820312 199.210938 L 177.066406 198.820312 L 177.1875 198.625 L 177.277344 198.484375 L 177.308594 198.429688 L 177.429688 198.238281 L 177.554688 198.042969 L 177.585938 197.988281 L 177.597656 197.972656 L 177.675781 197.847656 L 177.796875 197.652344 L 177.917969 197.460938 L 177.972656 197.371094 L 178.027344 197.285156 L 178.085938 197.199219 L 178.140625 197.109375 L 178.160156 197.074219 L 178.195312 197.023438 L 178.25 196.933594 L 178.359375 196.761719 L 178.402344 196.691406 L 178.414062 196.671875 L 178.523438 196.5 L 178.578125 196.410156 L 178.632812 196.324219 L 178.640625 196.308594 L 178.6875 196.234375 L 178.742188 196.148438 L 178.796875 196.058594 L 178.851562 195.972656 L 178.882812 195.925781 L 178.90625 195.886719 L 178.960938 195.796875 L 179.015625 195.710938 L 179.074219 195.625 L 179.125 195.542969 L 179.128906 195.535156 L 179.183594 195.449219 L 179.238281 195.359375 L 179.292969 195.273438 L 179.347656 195.183594 L 179.363281 195.160156 L 179.402344 195.097656 L 179.457031 195.011719 L 179.511719 194.921875 L 179.566406 194.835938 L 179.605469 194.773438 L 179.621094 194.75 L 179.675781 194.660156 L 179.730469 194.574219 L 179.789062 194.484375 L 179.84375 194.398438 L 179.847656 194.390625 L 179.898438 194.3125 L 179.953125 194.222656 L 180.007812 194.136719 L 180.0625 194.046875 L 180.089844 194.007812 L 180.117188 193.960938 L 180.171875 193.871094 L 180.28125 193.699219 L 180.328125 193.625 L 180.335938 193.609375 L 180.390625 193.523438 L 180.445312 193.433594 L 180.503906 193.347656 L 180.558594 193.261719 L 180.570312 193.238281 L 180.613281 193.171875 L 180.667969 193.085938 L 180.722656 192.996094 L 180.777344 192.910156 L 180.8125 192.855469 L 180.832031 192.824219 L 180.886719 192.734375 L 180.941406 192.648438 L 180.996094 192.558594 L 181.050781 192.472656 L 181.105469 192.382812 L 181.214844 192.210938 L 181.269531 192.121094 L 181.292969 192.085938 L 181.324219 192.035156 L 181.382812 191.945312 L 181.4375 191.859375 C 185.402344 185.53125 189.328125 179.171875 192.945312 172.652344 C 195.085938 168.792969 197.179688 164.777344 199.027344 160.664062 C 195.914062 185.082031 181.4375 208.390625 181.4375 208.390625 C 181.4375 217.261719 181.949219 220.816406 182.789062 227.792969 C 183.675781 235.171875 184.585938 239.335938 185.679688 240.472656 C 186.683594 241.519531 189.320312 242.097656 193.609375 242.097656 L 202.679688 242.097656 C 212.800781 242.097656 221.140625 240.5 227.820312 237.3125 C 234.480469 234.136719 240.320312 227.882812 245.308594 218.546875 L 248.0625 218.546875 C 247.410156 222.914062 245.394531 229.800781 241.90625 239.21875 C 239.984375 244.410156 238.605469 248.722656 237.847656 252.132812 Z M 213.734375 252.132812 " fill-opacity="1" fill-rule="evenodd"/></g></svg>